
<svg version="1.1" id="Layer_1" xmlns="http://www.w3.org/2000/svg" xmlns:xlink="http://www.w3.org/1999/xlink" x="0px" y="0px"
	  viewBox="0 0 52 52" enable-background="new 0 0 52 52" xml:space="preserve">
<g>
	<polygon fill="#FFFFFF" points="44,8 44,5 42,5 42,8 42,10 42,13 44,13 44,10 49,10 49,46 3,46 3,10 8,10 8,13 10,13 10,10 10,8 
		10,5 8,5 8,8 1,8 1,48 51,48 51,8 	"/>
	<polygon fill="#FFFFFF" points="16,10 36,10 36,13 38,13 38,10 38,8 38,5 36,5 36,8 16,8 16,5 14,5 14,8 14,10 14,13 16,13 	"/>
</g>
<rect x="8" y="18" fill="#FFFFFF" width="8" height="3"/>
<rect x="22" y="18" fill="#FFFFFF" width="8" height="3"/>
<rect x="36" y="18" fill="#FFFFFF" width="8" height="3"/>
<rect x="8" y="28" fill="#FFFFFF" width="8" height="3"/>
<polygon fill="#FFFFFF" points="31.524,27.317 29.97,25.763 25.275,30.458 22.126,27.31 20.572,28.865 25.235,33.527 25.267,33.495 
	25.307,33.535 "/>
<rect x="36" y="28" fill="#FFFFFF" width="8" height="3"/>
<rect x="8" y="38" fill="#FFFFFF" width="8" height="3"/>
<rect x="22" y="38" fill="#FFFFFF" width="8" height="3"/>
<rect x="36" y="38" fill="#FFFFFF" width="8" height="3"/>
</svg>
