
<svg version="1.1" id="Capa_1" xmlns="http://www.w3.org/2000/svg" xmlns:xlink="http://www.w3.org/1999/xlink" x="0px" y="0px"
	 viewBox="0 0 512 512" enable-background="new 0 0 512 512" xml:space="preserve">
<g>
	<g>
		<path fill="#00A5EA" d="M344.684,342.59c-4.711,0-8.48,3.561-9.004,8.271c-4.084,40.416-38.217,71.932-79.784,71.932
			c-41.463,0-75.596-31.516-79.784-71.932c-0.523-4.607-4.293-8.271-9.004-8.271H58.215c-22.826,0-41.358,18.532-41.358,41.357
			v86.695C16.857,493.468,35.39,512,58.215,512h395.57c22.825,0,41.357-18.532,41.357-41.357v-86.59
			c0-22.826-18.532-41.358-41.357-41.358H344.684V342.59z"/>
		<path fill="#00A5EA" d="M317.775,207.941l-32.354,32.354V29.422C285.422,13.192,272.229,0,256,0l0,0
			c-16.229,0-29.422,13.192-29.422,29.422v210.873l-32.353-32.354c-9.947-9.947-25.862-12.459-37.589-4.607
			c-16.02,10.68-17.59,32.563-4.711,45.441l86.694,86.694c9.633,9.633,25.233,9.633,34.866,0l86.694-86.694
			c12.879-12.878,11.309-34.762-4.711-45.441C343.637,195.377,327.722,197.89,317.775,207.941z"/>
	</g>
</g>
</svg>
