
<svg version="1.1" id="Layer_1" xmlns="http://www.w3.org/2000/svg" xmlns:xlink="http://www.w3.org/1999/xlink" x="0px" y="0px"
	viewBox="0 0 200 200" enable-background="new 0 0 200 200" xml:space="preserve">
<path fill="#FFFFFF" d="M53.264,177.985c0.588,0.633,1.185,1.25,1.788,1.857c10.19,10.423,26.823,17.755,37.174,19.438
	c3.266,0.531,9.969,0.522,13.237-0.002c10.151-1.63,26.478-8.728,36.564-18.82c0.111-0.109,0.226-0.221,0.334-0.33
	c0.027-0.028,0.055-0.058,0.082-0.085c0.668-0.669,1.331-1.356,1.983-2.06l6.784-8.458c10.759-15.21,17.092-34.228,17.092-52.317
	V99.845h4.34h8.683c2.604,0,4.341-1.736,4.341-4.341c0-2.604-1.737-4.341-4.341-4.341h-4.341v-4.341
	c0-34.294-22.575-63.38-56.435-72.93v-0.869C120.55,6.077,114.907,0,107.526,0H90.163c-6.946,0-13.023,5.643-13.023,13.023v0.868
	c-33.861,9.55-56.434,38.636-56.434,72.93v4.341h-4.342c-2.604,0-4.34,1.737-4.34,4.341c0,2.604,1.736,4.341,4.34,4.341h8.683h4.341
	v17.365c0,18.089,6.332,37.106,17.091,52.317L53.264,177.985z M138.771,31.75c0.482,0.321,0.961,0.646,1.435,0.979
	c5.531,4.123,10.64,8.954,14.641,14.155l-19.971,3.906L138.771,31.75z M57.487,32.729c0.472-0.332,0.95-0.658,1.432-0.979
	l3.894,19.04l-19.968-3.906C46.846,41.683,51.954,36.852,57.487,32.729z M29.388,91.163v-4.341h0
	c0-11.551,2.908-22.449,8.172-31.973l30.029,5.928c0.434,0,0.434,0,0.869,0c1.303,0,2.17-0.434,3.473-0.869
	c1.302-0.868,1.736-2.605,1.302-3.908l-5.959-29.004c3.139-1.51,6.434-2.808,9.867-3.874v11.607c0,2.605,1.736,4.341,4.341,4.341
	c2.605,0,4.341-1.736,4.341-4.341V17.365v-4.342c0-2.171,1.736-4.341,4.341-4.341h17.364c2.172,0,4.342,1.736,4.342,4.341v4.341
	v17.364c0,2.605,1.735,4.341,4.341,4.341c2.604,0,4.341-1.736,4.341-4.341V23.122c3.548,1.102,6.949,2.449,10.18,4.023
	l-5.838,28.421c0,1.302,0.433,3.038,1.302,3.907c0.867,0.869,1.736,1.302,3.037,1.302c0.435,0,0.435,0,0.871,0l29.835-6.282
	c5.385,9.607,8.365,20.634,8.365,32.327v4.341h-4.341H33.729H29.388z M38.069,117.209V99.845h121.55v17.364
	c0,18.93-6.495,35.751-16.242,48.536c0,0-6.045,6.955-8.453,9.348c-8.09,9.074-22.414,15.291-34.161,15.863
	c-0.919,0.075-2.825,0.075-3.726,0c-7.19-0.33-14.854-2.105-21.527-6.504C61.167,175,54.312,165.745,54.312,165.745
	C44.563,152.959,38.069,136.137,38.069,117.209z"/>
<path fill="#FFFFFF" d="M84.156,172.965c-0.497,0-0.993-0.018-1.489-0.059c-6.371-0.504-11.579-4.286-14.291-10.377
	c-0.332-0.744-0.041-1.618,0.672-2.015c0.708-0.399,1.608-0.184,2.066,0.489c1.207,1.776,3.207,2.835,5.351,2.835
	c3.573,0,6.48-2.908,6.48-6.483c0-4.111,2.172-7.415,5.809-8.835c3.33-1.304,7.171-0.754,9.861,1.281
	c2.697-2.035,6.546-2.578,9.867-1.284c3.633,1.423,5.801,4.727,5.801,8.838c0,3.575,2.909,6.483,6.482,6.483
	c2.143,0,4.144-1.059,5.348-2.835c0.462-0.676,1.356-0.885,2.068-0.489c0.714,0.396,1.007,1.271,0.675,2.015
	c-2.716,6.093-7.932,9.876-14.301,10.377c-6.093,0.479-12.198-2.02-15.944-6.321C95.171,170.54,89.716,172.965,84.156,172.965z"/>
<path fill="#FFFFFF" d="M78.435,125.11c0,4.767-3.862,8.629-8.627,8.629s-8.629-3.862-8.629-8.629c0-4.763,3.864-8.627,8.629-8.627
	S78.435,120.348,78.435,125.11z"/>
<path fill="#FFFFFF" d="M128.916,115.198c5.466,0,9.913,4.447,9.913,9.914c0,5.466-4.447,9.912-9.913,9.912
	s-9.913-4.446-9.913-9.912C119.003,119.646,123.45,115.198,128.916,115.198 M128.916,108.111c-9.389,0-17,7.611-17,17.001
	c0,9.389,7.611,16.999,17,16.999c9.39,0,17-7.61,17-16.999C145.916,115.723,138.306,108.111,128.916,108.111L128.916,108.111z"/>
<path fill="#FFFFFF" d="M149.084,187.777c0,1.933-1.567,3.5-3.5,3.5l0,0c-1.933,0-3.5-1.567-3.5-3.5v-76.166
	c0-1.933,1.567-3.5,3.5-3.5l0,0c1.933,0,3.5,1.567,3.5,3.5V187.777z"/>
</svg>
