
<svg version="1.1" id="Layer_1" xmlns="http://www.w3.org/2000/svg" xmlns:xlink="http://www.w3.org/1999/xlink" x="0px" y="0px"
	  viewBox="0 0 52 52" enable-background="new 0 0 52 52" xml:space="preserve">
<path fill="#FFFFFF" d="M37.143,6.135c0.016-0.149,0.045-0.294,0.045-0.448c0-2.416-1.959-4.375-4.375-4.375
	s-4.375,1.959-4.375,4.375s1.959,4.375,4.375,4.375c1.234,0,2.344-0.515,3.14-1.337c6.664,3.564,11.213,10.578,11.213,18.649
	c0,11.671-9.494,21.165-21.165,21.165c-11.67,0-21.166-9.494-21.166-21.165c0-8.866,5.489-16.457,13.241-19.601l-1.835,3.568
	l2.566,1.32l4.142-7.991l0.076,0.039l0.006-0.013l-8.017-4.09l-1.365,2.655l3.521,1.811C8.289,8.594,2,17.242,2,27.375
	c0,13.255,10.745,24,24,24s24-10.745,24-24C50,18.146,44.781,10.15,37.143,6.135z"/>
<path fill="#FFFFFF" d="M19.876,26c-0.659-2.4-2.85-4.167-5.459-4.167c-3.13,0-5.667,2.537-5.667,5.667
	c0,3.13,2.537,5.667,5.667,5.667c2.609,0,4.801-1.767,5.459-4.167H31v6h3v-6h3v3h3v-3h3v-3H19.876z M14.417,30.332
	c-1.562,0-2.833-1.271-2.833-2.832s1.271-2.832,2.833-2.832s2.832,1.271,2.832,2.832S15.979,30.332,14.417,30.332z"/>
</svg>
