
<svg version="1.1" id="Layer_1" xmlns="http://www.w3.org/2000/svg" xmlns:xlink="http://www.w3.org/1999/xlink" x="0px" y="0px"
	 viewBox="0 0 200 200" enable-background="new 0 0 200 200" xml:space="preserve">
<path fill="#FFFFFF" d="M98.752,86.041h-7.086H78.861H71.83h-2.991h-7.032H16.167v45.337v7.335v2.688v7.335v45.64h45.671h7.304
	h2.719h7.303H124.5v-0.096v-7.089v-38.457v-6.999v-3.022v-6.999V86.041H98.752z M117.413,181.958l-16.568-16.568l16.568-16.567
	V181.958z M23.253,97.82l16.903,16.903l-16.903,16.902V97.82z M95.334,119.567l17.029,17.029H78.305L95.334,119.567z M73.71,131.169
	V97.944l16.613,16.612L73.71,131.169z M66.624,131.168l-16.445-16.444l16.445-16.445V131.168z M62.029,136.597H28.306l16.862-16.862
	L62.029,136.597z M23.253,148.486l16.57,16.57l-16.57,16.57V148.486z M28.471,143.683h32.726l-16.363,16.363L28.471,143.683z
	 M66.624,148.278v33.557l-16.778-16.778L66.624,148.278z M73.71,148.277l17.112,17.112L73.71,182.502V148.277z M79.138,143.683
	h33.393l-16.696,16.696L79.138,143.683z M117.413,131.625l-17.068-17.068l17.068-17.068V131.625z M91.666,93.127h7.086h13
	l-16.418,16.418L78.916,93.127H91.666z M61.752,93.127l-16.585,16.584L28.583,93.127H61.752z M27.614,187.288l17.22-17.221
	l17.221,17.221H27.614z M78.947,187.288l16.887-16.887l16.887,16.887H95.177H78.947z"/>
<ellipse fill="#FFFFFF" cx="129.084" cy="43" rx="9" ry="1.929"/>
<ellipse fill="#FFFFFF" cx="61.042" cy="20" rx="9" ry="1.929"/>
<path fill="#FFFFFF" d="M184.793,183.373L184.48,41.103h-0.021l0.035-0.035c-5.539-5.539-13.904-6.238-20.244-2.245
	c-5.297-4.713-19.042-8.072-35.167-8.072c-20.711,0-37.5,5.541-37.5,12.375c0,0.263,0.033,0.522,0.082,0.781v19.629v9.701v12.805
	h7.086V50.398c6.816,3.091,17.859,5.102,30.332,5.102c12.471,0,23.514-2.011,30.332-5.102v124.328v6.856v0.834
	c-4.596,2.217-16.178,4.871-30.332,4.871c-1.563,0-3.089-0.037-4.584-0.098v7.089c1.504,0.061,3.031,0.096,4.584,0.096
	c19.267,0,35.123-4.796,37.244-10.967c3.682-3.673,7.679-3.778,11.359-0.096l0.02-0.02v0.084L184.793,183.373z M129.084,48.414
	c-15.055,0-25.203-3.003-29.127-5.289c3.924-2.286,14.072-5.289,29.127-5.289s25.203,3.003,29.127,5.289
	C154.287,45.411,144.139,48.414,129.084,48.414z M166.502,174.749V46.001c3.043-2.893,7.423-3.422,10.9-1.488l0.286,130.251
	C174.051,173.111,170.148,173.112,166.502,174.749z"/>
<path fill="#FFFFFF" d="M95.137,15.558c-1.898-1.48-4.644-2.814-8.037-3.934s-7.434-2.026-11.92-2.652
	c-4.34-0.606-9.104-0.942-14.097-0.964V8C61,8,60.918,8.004,60.834,8.004S60.668,8,60.584,8v0.008
	c-4.993,0.022-9.757,0.358-14.097,0.964c-4.486,0.626-8.527,1.532-11.92,2.652s-6.139,2.453-8.037,3.934
	c-1.897,1.481-2.947,3.108-2.947,4.817c0,0.065,0.002,0.131,0.006,0.196s0.01,0.131,0.017,0.196c0.007,0.065,0.016,0.13,0.026,0.195
	c0.01,0.065,0.021,0.13,0.033,0.194v4.907v4.907v4.907v4.907v2.425v2.425v2.425v2.425v9.702v9.701v9.701v9.701h1.771h1.771h1.771
	h1.771V73.88V58.47V43.059V27.648c1.704,0.772,3.672,1.478,5.861,2.101c2.188,0.623,4.598,1.165,7.184,1.609
	s5.349,0.792,8.244,1.029c2.739,0.224,5.604,0.339,8.543,0.352v0.01c0.084,0,0.166-0.005,0.25-0.005S61,32.75,61.084,32.75v-0.01
	c2.939-0.013,5.804-0.128,8.543-0.352c2.896-0.237,5.658-0.585,8.244-1.029s4.995-0.986,7.184-1.609
	c2.189-0.623,4.157-1.329,5.861-2.101v15.411V58.47V73.88v15.411h1.771h1.771h1.771h1.771V79.59v-9.701v-9.701v-9.702v-2.425v-2.425
	V43.21v-2.425v-4.907v-4.907v-4.907v-4.907c0.012-0.064,0.023-0.129,0.033-0.194c0.01-0.064,0.02-0.13,0.026-0.195
	s0.013-0.13,0.017-0.196s0.006-0.131,0.006-0.196C98.084,18.667,97.035,17.039,95.137,15.558z M60.834,25.661
	c-14.915-0.034-24.975-3.013-28.877-5.286c3.902-2.272,13.962-5.252,28.877-5.286c14.915,0.034,24.975,3.013,28.877,5.286
	C85.809,22.647,75.749,25.627,60.834,25.661z"/>
</svg>
