
<svg version="1.1" id="Capa_1" xmlns="http://www.w3.org/2000/svg" xmlns:xlink="http://www.w3.org/1999/xlink" x="0px" y="0px"
	  viewBox="0 0 512 512" enable-background="new 0 0 512 512" xml:space="preserve">
<g>
	<path fill="#FFFFFF" d="M106.667,206.8H320c4.71,0,8.533-4.823,8.533-9.533s-3.823-9.533-8.533-9.533H106.667
		c-4.71,0-8.533,4.823-8.533,9.533S101.956,206.8,106.667,206.8z"/>
	<path fill="#FFFFFF" d="M106.667,138.533H192c4.71,0,8.533-4.823,8.533-9.533s-3.823-9.533-8.533-9.533h-85.333
		c-4.71,0-8.533,4.823-8.533,9.533S101.956,138.533,106.667,138.533z"/>
	<path fill="#FFFFFF" d="M106.667,275.066H320c4.71,0,8.533-4.822,8.533-9.533S324.71,256,320,256H106.667
		c-4.71,0-8.533,4.822-8.533,9.533S101.956,275.066,106.667,275.066z"/>
	<path fill="#FFFFFF" d="M251.733,324.268H106.667c-4.71,0-8.533,4.822-8.533,9.532s3.823,9.534,8.533,9.534h145.067
		c4.71,0,8.534-4.824,8.534-9.534S256.444,324.268,251.733,324.268z"/>
	<path fill="#FFFFFF" d="M226.133,392.533H106.667c-4.71,0-8.533,4.822-8.533,9.533s3.823,9.533,8.533,9.533h119.467
		c4.71,0,8.533-4.822,8.533-9.533S230.844,392.533,226.133,392.533z"/>
	<path fill="#FFFFFF" d="M413.867,293.23V124.467L289.398,0H12.8v512h375.467c61.167,0,110.935-49.767,110.935-110.934
		C499.2,348.723,462.712,304.836,413.867,293.23z M295.4,30.133l88.334,88.334H295.4V30.133z M329.199,493.934H30.867V18.067
		h246.467v118.466H395.8v153.976c-2.918-0.247-4.751-0.376-7.533-0.376c-61.167,0-110.933,49.768-110.933,110.934
		c0,3.406,0.213,6.76,0.512,10.097c0.068,0.774,0.146,1.544,0.23,2.319c0.367,3.261,0.836,6.485,1.477,9.651
		c0.076,0.376,0.18,0.742,0.256,1.118c0.613,2.884,1.356,5.717,2.192,8.516c0.214,0.7,0.409,1.408,0.632,2.101
		c0.965,3.004,2.039,5.956,3.242,8.849c0.23,0.547,0.486,1.075,0.717,1.613c1.102,2.525,2.297,4.992,3.576,7.415
		c0.307,0.581,0.598,1.17,0.912,1.75c1.494,2.705,3.098,5.342,4.813,7.91c0.394,0.589,0.803,1.151,1.203,1.731
		c1.563,2.253,3.2,4.445,4.915,6.57c0.324,0.401,0.632,0.819,0.964,1.221c1.973,2.372,4.055,4.643,6.213,6.835
		c0.529,0.537,1.066,1.06,1.612,1.587c2.091,2.04,4.232,4.021,6.479,5.89c0.194,0.17,0.384,0.35,0.588,0.512
		c2.407,1.979,4.924,3.831,7.501,5.615c0.623,0.435,1.255,0.853,1.886,1.271C327.91,494.055,328.542,493.516,329.199,493.934z
		 M388.267,493.934c-51.755,0-92.866-41.111-92.866-92.867c0-51.754,41.111-92.865,92.866-92.865c2.662,0,5.291,0.179,7.902,0.4
		c2.482,0.238,5.052,0.563,7.757,1.017l3.78,0.631c42.453,8.985,73.428,45.729,73.428,90.817
		C481.134,452.821,440.021,493.934,388.267,493.934z"/>
	<path fill="#FFFFFF" d="M430.461,352.527l-45.753,66.607l-32.698-25.664c-3.635-2.996-10.02-2.459-13.006,1.186
		c-2.995,3.645-2.467,10.02,1.187,13.007l40.841,33.527c1.536,1.255,3.446,1.938,5.41,1.938c0.384,0,0.775-0.026,1.169-0.077
		c2.354-0.333,4.472-1.621,5.837-3.575l53.025-76.193c2.688-3.865,0.74-10.19-3.134-12.88
		C439.465,347.697,433.157,348.662,430.461,352.527z"/>
</g>
</svg>
