
<svg version="1.1" id="Capa_1" xmlns="http://www.w3.org/2000/svg" xmlns:xlink="http://www.w3.org/1999/xlink" x="0px" y="0px"
	 viewBox="0 0 512 512" enable-background="new 0 0 512 512" xml:space="preserve">
<g>
	<path fill="#00A5EA" d="M132.219,432.153l-3.799,39.878c-2.051,21.478,13.781,38.89,35.354,38.89h184.442
		c21.574,0,37.815-17.442,36.282-38.969l-2.843-39.81H132.219V432.153z"/>
	<path fill="#00A5EA" d="M512,434.743v-220.07c0-21.575-17.491-39.066-39.065-39.066h-67.828v104.092H106.896V175.607h-67.83
		C17.491,175.607,0,193.098,0,214.673v220.068c0,21.574,17.491,39.065,39.066,39.065h67.828v-67.516h298.202v67.516h67.828
		C494.509,473.809,512,456.317,512,434.743z M459.027,248.749c-10.099,0-18.292-8.185-18.292-18.283s8.193-18.283,18.292-18.283
		c10.09,0,18.283,8.185,18.283,18.283S469.117,248.749,459.027,248.749z"/>
	<path fill="#00A5EA" d="M378.229,76.35v-8.897L309.385,1.079h-9.846c-0.02,0-0.02,0-0.02,0c-0.02,0-0.02,0-0.02,0H171.686
		c-20.451,0-37.083,16.613-37.083,37.024v216.291h243.625V77.063C378.229,76.828,378.238,76.594,378.229,76.35z M341.789,215.309
		c0,0.332-0.254,0.565-0.616,0.565H171.684c-0.372,0-0.636-0.235-0.636-0.565V38.094c0-0.332,0.273-0.576,0.636-0.576h107.285
		v22.278c0,27.874,23.909,37.992,40.003,37.992h22.815C341.789,97.788,341.789,215.309,341.789,215.309z"/>
</g>
</svg>
