
<svg version="1.1" id="Layer_1" xmlns="http://www.w3.org/2000/svg" xmlns:xlink="http://www.w3.org/1999/xlink" x="0px" y="0px"
	  viewBox="0 0 512 512" enable-background="new 0 0 512 512" xml:space="preserve">
<g>
	<polygon fill="#FFFFFF" points="318.226,297.291 317.734,297.291 317.734,445.492 213.633,445.492 208.133,462.5 334.742,462.5 
		334.742,338.58 318.226,338.58 	"/>
	<path fill="#FFFFFF" d="M189.251,462.451l-8.482-16.959H36.508V66.524h265.688c4.639-4.622,10.052-8.468,16.029-11.319v-5.689H19.5
		V462.5h174.855v-0.049H189.251z"/>
</g>
<rect x="121.167" y="133.5" fill="#FFFFFF" width="16" height="74.317"/>
<rect x="116.945" y="187.645" transform="matrix(-0.7071 0.7071 -0.7071 -0.7071 374.7754 236.053)" fill="#FFFFFF" width="43.109" height="16"/>
<rect x="97.944" y="187.644" transform="matrix(-0.7071 -0.7071 0.7071 -0.7071 65.656 418.4847)" fill="#FFFFFF" width="43.109" height="16"/>
<rect x="120.832" y="301.227" fill="#FFFFFF" width="16" height="74.316"/>
<rect x="97.945" y="305.398" transform="matrix(0.7071 -0.7071 0.7071 0.7071 -186.6046 176.2884)" fill="#FFFFFF" width="43.109" height="16.001"/>
<rect x="116.945" y="305.398" transform="matrix(0.7071 0.7071 -0.7071 0.7071 262.1692 -6.1426)" fill="#FFFFFF" width="43.109" height="16.001"/>
<rect x="67.3" y="230" fill="#FFFFFF" width="123.733" height="16"/>
<rect x="67.3" y="263" fill="#FFFFFF" width="123.733" height="16"/>
<circle fill="#FFFFFF" cx="327" cy="107" r="18"/>
<path fill="#FFFFFF" d="M384.492,113.333c0.207-1.965,0.314-3.956,0.314-5.979c0-22.999-13.535-42.843-33.032-52.15V0h-49.549
	v49.516v5.689c-5.978,2.851-11.391,6.697-16.029,11.319c-10.491,10.452-17.003,24.883-17.003,40.831
	c0,2.023,0.107,4.013,0.314,5.979l-108.33,324.98l3.591,7.179l8.482,16.959h5.104v0.049V512h16.516v-49.5v-0.049h14.262l5.5-16.959
	l48.062-148.201h39.04h0.491v41.289h16.517h33.032v-41.289h39.522l53.563,165.16h14.27V512h16.517v-49.549h5.104l12.073-24.138
	L384.492,113.333z M318.742,49.516v-33h16.516v33.693c-2.709-0.388-5.45-0.661-8.258-0.661s-5.549,0.272-8.258,0.661V49.516z
	 M301.734,74.731c4.912-3.813,10.697-6.55,17.008-7.836c2.669-0.544,5.431-0.831,8.258-0.831c22.768,0,41.291,18.523,41.291,41.291
	c0,22.767-18.523,41.29-41.291,41.29c-2.827,0-5.589-0.287-8.258-0.831c-6.311-1.286-12.096-4.023-17.008-7.836
	c-9.739-7.56-16.025-19.368-16.025-32.623S291.995,82.292,301.734,74.731z M197.27,445.492l-0.144,0.443h-13.667l-0.222-0.443
	l-4.229-8.45l99.459-298.381c3.643,5.632,8.242,10.562,13.568,14.625L197.27,445.492z M302.226,280.774h-0.491h-33.681
	l33.681-103.851l5.025-15.495c3.517,1.326,7.18,2.309,10.975,2.94v12.555v62.56h-15.509V280.774z M335.258,322.064h-16.516V256
	h16.516V322.064z M351.774,280.774v-41.291h-17.032v-74.883c4.333-0.598,8.518-1.671,12.498-3.172l38.706,119.346H351.774z
	 M470.542,445.936h-13.667l-94.918-292.649c5.317-4.063,9.917-8.993,13.567-14.625l99.46,298.381L470.542,445.936z"/>
</svg>
