
<svg xmlns="http://www.w3.org/2000/svg" xmlns:xlink="http://www.w3.org/1999/xlink" version="1.1" id="Layer_1" x="0px" y="0px" viewBox="0 0 191.102 191.102" style="enable-background:new 0 0 191.102 191.102;" xml:space="preserve">
<g>
	<g>
		<path d="M177.203,100.763h-4.321l-14.417-45.169h1.365c1.92,0,3.475-1.556,3.475-3.475s-1.554-3.475-3.475-3.475H97.288V27.303    c5.978-1.553,10.424-6.948,10.424-13.405C107.711,6.235,101.479,0,93.814,0c-7.665,0-13.899,6.235-13.899,13.898    c0,6.457,4.446,11.851,10.424,13.405v21.341H27.797c-1.92,0-3.475,1.556-3.475,3.475c0,1.919,1.554,3.475,3.475,3.475h4.883    l-14.302,45.169h-4.479c-1.92,0-3.475,1.556-3.475,3.475c0,15.327,12.47,27.797,27.797,27.797    c15.327,0,27.797-12.47,27.797-27.797c0-1.919-1.554-3.475-3.475-3.475h-4.321l-14.418-45.17h46.535v111.5    c-9.844,1.662-17.373,10.224-17.373,20.534c0,1.919,1.554,3.475,3.475,3.475h34.746c1.92,0,3.475-1.556,3.475-3.475    c0-10.31-7.529-18.872-17.373-20.534v-111.5h50.052l-14.302,45.169h-4.479c-1.92,0-3.475,1.556-3.475,3.475    c0,15.327,12.47,27.797,27.797,27.797c15.327,0,27.797-12.47,27.797-27.797C180.677,102.319,179.124,100.763,177.203,100.763z     M58.779,107.712c-1.659,9.847-10.247,17.373-20.559,17.373c-10.312,0-18.9-7.526-20.559-17.373H58.779z M50.924,100.763H25.664    l12.579-39.727L50.924,100.763z M86.864,13.898c0-3.832,3.118-6.949,6.949-6.949s6.949,3.117,6.949,6.949    c0,3.832-3.118,6.949-6.949,6.949C89.983,20.847,86.864,17.731,86.864,13.898z M107.271,184.153H80.357    c1.533-5.946,6.922-10.352,13.327-10.413c0.046,0.002,0.084,0.026,0.13,0.026c0.046,0,0.084-0.025,0.13-0.026    C100.349,173.8,105.737,178.206,107.271,184.153z M152.905,61.036l12.68,39.727h-25.259L152.905,61.036z M152.88,125.085    c-10.312,0-18.9-7.526-20.559-17.373h41.118C171.781,117.559,163.193,125.085,152.88,125.085z" fill="#FFFFFF"/>
	</g>
</g>

</svg>
