
<svg version="1.1" id="Layer_1" xmlns="http://www.w3.org/2000/svg" xmlns:xlink="http://www.w3.org/1999/xlink" x="0px" y="0px"
	  viewBox="0 -1.667 512 494.5" enable-background="new 0 -1.667 512 494.5" xml:space="preserve">
<path fill="#FFFFFF" d="M146.145,299.959c-5.908,9.88-10.477,20.508-13.517,31.514H22.934c-1.977,0-4.966-3.56-4.966-8.925v-13.665
	c0-5.365,2.989-8.924,4.966-8.924H146.145 M176.828,284.959H22.934c-11.027,0-19.967,10.708-19.967,23.924v13.665
	c0,13.215,8.939,23.925,19.967,23.925h121.725C148.594,322.736,160.22,301.328,176.828,284.959L176.828,284.959z"/>
<path fill="#FFFFFF" d="M490.5,299.959c1.978,0,4.967,3.559,4.967,8.924v13.665c0,5.365-2.989,8.925-4.967,8.925H377.368
	c-3.04-11.007-7.61-21.633-13.521-31.514H490.5 M490.5,284.959H333.168c16.605,16.369,28.233,37.777,32.168,61.514H490.5
	c11.026,0,19.967-10.71,19.967-23.925v-13.665C510.467,295.667,501.526,284.959,490.5,284.959L490.5,284.959z"/>
<path fill="#FFFFFF" d="M129.934,346.706c-1.164,6.85-1.75,13.788-1.75,20.771c0,3.584,0.157,7.17,0.469,10.744h-64.89
	c-0.891-1.324-2.221-4.412-2.221-8.924v-13.666c0-4.512,1.331-7.6,2.221-8.925H129.934 M149.216,331.706H62.01
	c-8.543,0-15.469,10.711-15.469,23.925v13.666c0,13.214,6.926,23.924,15.469,23.924h84.263c-2.013-8.288-3.088-16.908-3.088-25.744
	C143.185,355.015,145.313,342.977,149.216,331.706L149.216,331.706z"/>
<path fill="#FFFFFF" d="M449.671,346.706c0.892,1.325,2.223,4.413,2.223,8.925v13.666c0,4.512-1.331,7.6-2.223,8.924h-68.328
	c0.313-3.574,0.468-7.16,0.468-10.744c0-6.98-0.586-13.921-1.75-20.771H449.671 M451.423,331.706h-90.645
	c3.902,11.271,6.031,23.309,6.031,35.771c0,8.836-1.074,17.456-3.089,25.744h87.701c8.545,0,15.471-10.71,15.471-23.924v-13.666
	C466.894,342.417,459.968,331.706,451.423,331.706L451.423,331.706z"/>
<path fill="#FFFFFF" d="M130.298,393.455c2.034,10.92,5.519,21.496,10.366,31.514h-34.352c-0.597-1.926-1.198-4.912-1.198-8.924
	v-13.666c0-4.014,0.601-6.997,1.198-8.924H130.298 M143.47,378.453h-42.384c-6.061,0-10.973,10.711-10.973,23.926v13.666
	c0,13.216,4.912,23.925,10.973,23.925h66.7C153.99,422.74,145.119,401.47,143.47,378.453L143.47,378.453z"/>
<path fill="#FFFFFF" d="M407.121,393.455c0.598,1.927,1.199,4.912,1.199,8.924v13.666c0,4.011-0.603,6.998-1.199,8.924H369.33
	c4.847-10.017,8.333-20.596,10.367-31.514H407.121 M412.347,378.453h-45.822c-1.647,23.017-10.521,44.287-24.314,61.517h70.138
	c6.062,0,10.975-10.709,10.975-23.925v-13.666C423.32,389.164,418.407,378.453,412.347,378.453L412.347,378.453z"/>
<path fill="#FFFFFF" d="M255.435,252.453c60.741,0,110.156,49.414,110.156,110.154s-49.415,110.157-110.156,110.157
	c-60.739,0-110.155-49.416-110.155-110.155C145.28,301.869,194.695,252.453,255.435,252.453 M255.435,234.451
	c-70.777,0-128.156,57.379-128.156,128.156c0,70.779,57.379,128.157,128.156,128.157c70.779,0,128.157-57.378,128.157-128.157
	C383.592,291.83,326.214,234.451,255.435,234.451L255.435,234.451z"/>
<path fill="#FFFFFF" d="M255.434,305.02l14.347,29.069l3.49,7.071l7.804,1.135l32.089,4.664l-23.217,22.632l-5.646,5.505
	l1.331,7.771l5.48,31.956l-28.698-15.089l-6.98-3.67l-6.98,3.67l-28.696,15.088l5.482-31.953l1.333-7.773l-5.648-5.505
	l-23.218-22.632l32.086-4.664l7.805-1.135l3.49-7.071L255.434,305.02 M255.434,271.123l-27.799,56.326l-62.164,9.035l44.983,43.848
	l-10.621,61.913l55.6-29.232l55.601,29.232l-10.616-61.913l44.979-43.848l-62.165-9.035L255.434,271.123L255.434,271.123z"/>
<g>
	<path fill="#FFFFFF" d="M233.68,165.865h3.79c-1.148-1.725-2.365-3.338-3.629-4.861C233.738,162.568,233.68,164.183,233.68,165.865
		z"/>
	<path fill="#FFFFFF" d="M228.166,181.557c2.494,5.977,3.999,13.247,3.999,22.231h-64.603h-0.924h-64.605
		c0-47.246,41.496-47.236,50.703-59.589l1.054-5.634c-12.937-6.559-22.069-22.363-22.069-40.852
		c0-24.355,15.843-44.102,35.381-44.102s35.38,19.747,35.38,44.102c0,18.327-8.97,34.036-21.734,40.696l1.201,6.404
		c6.157,7.165,23.461,10.247,36.039,22.078v-1.027c0-6.422,0.653-12.186,1.802-17.388c-5.764-3.882-11.495-6.667-16.181-8.87
		c9.16-10.977,14.565-25.938,14.565-41.894c0-27.49-15.936-50.692-37.552-57.651c5.81-14.44,17.757-24.373,31.599-24.373
		c19.539,0,35.379,19.747,35.379,44.102c0,18.33-8.97,34.037-21.736,40.698l1.201,6.404c2.678,3.116,7.464,5.46,13.053,8.087
		c5.112-4.249,10.476-7.448,15.361-9.984c-2.397-1.245-4.68-2.334-6.755-3.31c2.561-3.068,4.816-6.458,6.754-10.083
		c-4.99-9.332-7.803-20.292-7.803-31.809c0-11.646,2.868-22.516,7.807-31.716C246.439,11.229,230.431,0,212.22,0
		c-19.537,0-36.531,12.917-45.114,31.832C158.523,12.916,141.529,0,121.994,0C93.831,0,70.923,26.824,70.923,59.793
		c0,15.992,5.4,30.93,14.563,41.89c-16.017,7.533-44.25,21.657-44.25,64.181v15.693h15.691H89.41
		c-1.927,6.399-3.067,13.743-3.067,22.231v15.692h15.69h64.605h0.924h64.604h15.692v-15.692c0-8.489-1.14-15.833-3.068-22.231
		h-11.111H228.166z M96.733,165.865H56.928c0-47.247,41.495-47.235,50.703-59.589l1.054-5.632
		c-12.938-6.559-22.07-22.364-22.07-40.853c0-24.355,15.843-44.102,35.381-44.102c13.84,0,25.786,9.933,31.595,24.371
		c-21.623,6.957-37.56,30.164-37.56,57.654c0,15.992,5.401,30.93,14.564,41.888C120.788,144.215,106.415,151.309,96.733,165.865z"/>
	<path fill="#FFFFFF" d="M277.279,165.865c0-1.685-0.057-3.303-0.159-4.87c-1.267,1.526-2.486,3.143-3.636,4.87H277.279z"/>
	<path fill="#FFFFFF" d="M425.478,101.687c9.159-10.976,14.565-25.938,14.565-41.893c0-32.969-22.913-59.793-51.07-59.793
		c-19.536,0-36.529,12.917-45.113,31.832c-8.582-18.916-25.576-31.832-45.111-31.832c-18.214,0-34.223,11.229-43.264,28.077
		c4.938,9.201,7.807,20.071,7.807,31.716c0,11.495-2.816,22.464-7.811,31.809c1.938,3.625,4.197,7.014,6.76,10.081
		c-2.077,0.977-4.361,2.067-6.759,3.313c4.882,2.535,10.248,5.733,15.357,9.98c5.948-2.797,10.991-5.273,13.545-8.701l1.055-5.632
		c-12.938-6.559-22.069-22.364-22.069-40.853c0-24.355,15.844-44.102,35.381-44.102c13.84,0,25.786,9.933,31.594,24.371
		c-21.622,6.957-37.558,30.164-37.558,57.654c0,15.992,5.398,30.93,14.563,41.888c-4.685,2.203-10.412,4.986-16.173,8.866
		c1.149,5.204,1.804,10.971,1.804,17.396v1.021c12.929-12.155,30.842-15.078,36.514-22.686l1.053-5.634
		c-12.937-6.559-22.069-22.363-22.069-40.852c0-24.355,15.844-44.102,35.383-44.102c19.538,0,35.38,19.747,35.38,44.102
		c0,18.327-8.971,34.036-21.734,40.696l1.201,6.404c10.102,11.755,50.215,12.521,50.215,58.975h-64.602h-0.924H278.79
		c0-8.984,1.502-16.255,3.997-22.231h-5.5h-11.121c-1.927,6.399-3.066,13.743-3.066,22.231v15.692h15.69h64.605h0.923h64.604h15.692
		v-15.692c0-8.489-1.142-15.833-3.068-22.231h32.493h15.691v-15.692C469.728,123.342,441.494,109.219,425.478,101.687z
		 M414.221,165.865c-9.683-14.553-24.057-21.648-33.859-26.257c9.158-10.977,14.564-25.938,14.564-41.894
		c0-27.49-15.936-50.692-37.553-57.651c5.811-14.44,17.758-24.373,31.6-24.373c19.539,0,35.381,19.747,35.381,44.102
		c0,18.33-8.971,34.037-21.735,40.698l1.201,6.404c10.102,11.756,50.215,12.522,50.215,58.972L414.221,165.865L414.221,165.865z"/>
	<path fill="#FFFFFF" d="M255.479,91.603c4.996-9.345,7.811-20.314,7.811-31.809c0-11.646-2.869-22.516-7.807-31.716
		c-4.939,9.201-7.807,20.071-7.807,31.716C247.676,71.311,250.489,82.272,255.479,91.603z"/>
	<path fill="#FFFFFF" d="M282.783,181.557c2.543-6.098,6.119-10.842,10.191-14.672v-1.021c0-6.426-0.652-12.192-1.803-17.396
		c-4.865,3.277-9.749,7.339-14.053,12.526c0.104,1.567,0.16,3.186,0.16,4.87h-3.797h-36.015h-3.79c0-1.682,0.058-3.297,0.16-4.861
		c-4.303-5.187-9.186-9.25-14.05-12.526c-1.149,5.202-1.802,10.966-1.802,17.388v1.027c4.068,3.827,7.636,8.574,10.178,14.665h5.514
		h11.111h21.371h11.121H282.783z"/>
	<path fill="#FFFFFF" d="M255.474,123.054c5.163-3.35,10.558-5.819,15.363-8.078c-5.11-4.247-10.476-7.445-15.357-9.979
		c-4.885,2.536-10.249,5.735-15.361,9.984C244.921,117.238,250.316,119.708,255.474,123.054z"/>
</g>
</svg>
